<svg width="24" height="24" viewBox="0 0 24 24" fill="none" xmlns="http://www.w3.org/2000/svg">
<path d="M19.6486 13.2834L19.6033 13.5611L19.8172 13.7439L21.3486 15.0529C21.3487 15.053 21.3489 15.0531 21.349 15.0533C21.4305 15.1237 21.4585 15.2343 21.4251 15.3305L21.425 15.3308L21.405 15.3888C21.0011 16.51 20.4061 17.5417 19.6303 18.4583C19.6299 18.4587 19.6296 18.4591 19.6292 18.4595L19.589 18.5064L19.5869 18.5089C19.5541 18.5476 19.5104 18.5755 19.4614 18.5887C19.4124 18.602 19.3606 18.6 19.3127 18.5831C19.3127 18.5831 19.3127 18.5831 19.3127 18.5831L17.4105 17.9061L17.1443 17.8113L16.9258 17.9905C16.2647 18.5326 15.5295 18.9574 14.7326 19.2567L14.4682 19.3561L14.4168 19.6339L14.0489 21.6236C14.0396 21.6737 14.0153 21.7198 13.9792 21.7558C13.943 21.7918 13.8968 21.8159 13.8467 21.825L13.8448 21.8254L13.784 21.8366C13.7837 21.8367 13.7833 21.8367 13.783 21.8368C12.6114 22.0475 11.4117 22.0475 10.2402 21.8368C10.2398 21.8367 10.2395 21.8367 10.2392 21.8366L10.1784 21.8253L10.1765 21.825C10.1264 21.8159 10.0802 21.7918 10.0441 21.7558C10.0079 21.7198 9.98362 21.6737 9.97434 21.6236L9.4827 21.7146L9.97434 21.6236L9.60403 19.6244L9.55246 19.346L9.28723 19.247C8.49972 18.9531 7.76948 18.5268 7.11196 17.9862L6.8934 17.8066L6.62684 17.9014L4.71173 18.5827C4.71148 18.5828 4.71123 18.5829 4.71098 18.5829C4.66297 18.5996 4.61105 18.6014 4.56199 18.5882C4.51268 18.5748 4.46856 18.5468 4.43546 18.5079L4.4342 18.5064L4.3932 18.4586C4.39301 18.4584 4.39281 18.4582 4.39262 18.4579C3.61765 17.547 3.02242 16.511 2.61825 15.3888L2.59816 15.3308L2.5982 15.3308L2.59601 15.3247C2.57874 15.2768 2.57645 15.2248 2.58945 15.1756C2.60245 15.1264 2.63013 15.0823 2.6688 15.0492L4.21567 13.7249L4.43012 13.5414L4.38371 13.2629C4.31587 12.8559 4.2827 12.4335 4.2827 12.0092C4.2827 11.5899 4.31583 11.1671 4.38385 10.7546L4.42977 10.4761L4.2151 10.2929L2.66527 8.97019C2.66506 8.97 2.66484 8.96982 2.66463 8.96963C2.58462 8.90026 2.55657 8.79021 2.59143 8.69338L2.59146 8.6934L2.59348 8.68758L2.61361 8.62942C3.01663 7.50836 3.61769 6.46877 4.38817 5.56016C4.38845 5.55983 4.38873 5.5595 4.38901 5.55917L4.42952 5.51192L4.42952 5.51193L4.4316 5.50947C4.46438 5.47073 4.50816 5.44288 4.55715 5.42963C4.60602 5.4164 4.65775 5.41832 4.70549 5.43514C4.7056 5.43517 4.70571 5.43521 4.70582 5.43525L6.62215 6.11698L6.88854 6.21175L7.10705 6.0323C7.75978 5.49627 8.49542 5.07006 9.28509 4.7704L9.5481 4.6706L9.59934 4.394L9.96965 2.39478L9.96965 2.39476C9.97894 2.34464 10.0032 2.29853 10.0394 2.26255C10.0755 2.22658 10.1217 2.20244 10.1718 2.19336L10.1737 2.19301L10.2349 2.18167C10.2353 2.18161 10.2356 2.18155 10.2359 2.18149C11.3952 1.97205 12.6186 1.97205 13.7779 2.18149C13.7782 2.18155 13.7786 2.18161 13.7789 2.18167L13.8401 2.19301L13.842 2.19336C13.8922 2.20244 13.9384 2.22658 13.9745 2.26255C14.0106 2.2985 14.0349 2.34456 14.0442 2.39463C14.0442 2.39468 14.0442 2.39472 14.0442 2.39477L14.4121 4.38448L14.4636 4.66305L14.7291 4.76204C15.5244 5.05864 16.2594 5.48521 16.9211 6.02784L17.1396 6.20701L17.4058 6.11227L19.3068 5.43568C19.3071 5.43559 19.3073 5.43549 19.3076 5.4354C19.3556 5.41875 19.4075 5.41693 19.4565 5.43021C19.5059 5.44356 19.55 5.47153 19.5831 5.51045L19.5843 5.51192L19.6253 5.5597C19.6255 5.55997 19.6257 5.56024 19.626 5.56052C20.3977 6.46796 20.9987 7.50758 21.4001 8.62912C21.4004 8.62989 21.4007 8.63067 21.401 8.63145L21.4204 8.68758L21.4203 8.68759L21.4225 8.69368C21.4398 8.74156 21.4421 8.79357 21.4291 8.84279C21.4161 8.89199 21.3884 8.93609 21.3497 8.96919L19.8172 10.2791L19.6031 10.4621L19.6487 10.7401C19.717 11.1564 19.7522 11.5864 19.7522 12.0115C19.7522 12.4365 19.717 12.8642 19.6486 13.2834Z" stroke="#6A6A6A"/>
<path d="M12 15.5C10.0668 15.5 8.5 13.9332 8.5 12C8.5 10.0668 10.0668 8.5 12 8.5C13.9332 8.5 15.5 10.0668 15.5 12C15.5 13.9332 13.9332 15.5 12 15.5Z" stroke="#6A6A6A"/>
</svg>
