<svg width="24" height="24" viewBox="0 0 24 24" fill="none" xmlns="http://www.w3.org/2000/svg">
<path d="M19.4019 13.2431L19.3339 13.6597L19.6548 13.934L21.1854 15.2423C21.1855 15.2424 21.1856 15.2424 21.1857 15.2425C21.1876 15.2442 21.1883 15.2457 21.1887 15.2471L21.1889 15.2487L21.1888 15.249L21.1693 15.3055C20.7756 16.398 20.1958 17.4031 19.4397 18.2964C19.4393 18.297 19.4389 18.2975 19.4384 18.298L19.3992 18.3437L19.3992 18.3437L19.3961 18.3474L17.4943 17.6706L17.095 17.5285L16.7673 17.7972C16.1272 18.3221 15.4158 18.733 14.6447 19.0227L14.248 19.1717L14.171 19.5884L13.8031 21.5781L13.8027 21.5787L13.8021 21.579L13.7993 21.5795L13.7397 21.5906C13.739 21.5907 13.7384 21.5908 13.7377 21.5909C12.5961 21.7961 11.427 21.7961 10.2854 21.5909C10.2848 21.5908 10.2841 21.5907 10.2835 21.5906L10.224 21.5795L10.2211 21.579L10.2205 21.5787L10.2202 21.5781L10.2202 21.5781L9.84984 19.5788L9.7725 19.1613L9.37466 19.0128C8.6141 18.7289 7.90779 18.3169 7.27072 17.7931L6.94289 17.5236L6.54304 17.6658L4.62897 18.3468C4.62891 18.3468 4.62884 18.3468 4.62878 18.3468C4.62829 18.347 4.62778 18.347 4.6273 18.3468C4.62676 18.3467 4.62627 18.3464 4.6259 18.3459L4.62401 18.3437L4.5836 18.2966C4.58337 18.2963 4.58313 18.296 4.58289 18.2958C3.82817 17.4085 3.24815 16.3994 2.85398 15.3055L2.83441 15.249L2.83447 15.249L2.83118 15.2399L2.83116 15.2394L2.83138 15.2391L4.37825 13.9149L4.69992 13.6395L4.63031 13.2218C4.56488 12.8293 4.5327 12.4206 4.5327 12.0092C4.5327 11.6029 4.56481 11.1938 4.63052 10.7953L4.69939 10.3776L4.3774 10.1028L2.82843 8.78077C2.82834 8.78069 2.82825 8.78061 2.82816 8.78053C2.82725 8.77969 2.82696 8.77909 2.82676 8.77833C2.82674 8.77823 2.82672 8.77815 2.8267 8.77808L2.82972 8.76936L2.84937 8.7126C3.24219 7.62045 3.82782 6.60765 4.57841 5.72236L4.61933 5.67462L4.61934 5.67463L4.62246 5.67094L6.53836 6.35252L6.93795 6.49467L7.26571 6.2255C7.89748 5.70669 8.60948 5.29418 9.37379 5.00414L9.7683 4.85443L9.84516 4.43953L10.2155 2.44031L10.2155 2.44029L10.2158 2.43967L10.2164 2.43936L10.2193 2.43883L10.2794 2.42769C10.2799 2.42759 10.2804 2.4275 10.2809 2.42741C11.4105 2.22342 12.6033 2.22342 13.7329 2.42741C13.7334 2.4275 13.7339 2.42759 13.7344 2.42769L13.7946 2.43883L13.7974 2.43935L13.798 2.43967L13.7984 2.44029L14.1663 4.42994L14.2436 4.84779L14.6417 4.99628C15.4105 5.28298 16.1215 5.69549 16.7626 6.22116L17.0903 6.48991L17.4896 6.34779L19.3896 5.67159C19.3896 5.67156 19.3897 5.67154 19.3897 5.67153C19.3899 5.67148 19.3901 5.67145 19.3903 5.67143C19.3906 5.67141 19.3909 5.67144 19.3912 5.67153C19.3918 5.67167 19.3923 5.67199 19.3926 5.67242L19.3945 5.67461L19.4349 5.72167C19.4352 5.72203 19.4355 5.72239 19.4358 5.72275C20.1875 6.60684 20.7732 7.61964 21.1643 8.71222L21.1841 8.76935L21.1841 8.76937L21.1874 8.77851L21.1874 8.77893L21.1871 8.77928L19.6548 10.0891L19.3336 10.3636L19.402 10.7806C19.4681 11.1835 19.5022 11.6 19.5022 12.0115C19.5022 12.4227 19.4681 12.8371 19.4019 13.2431Z" stroke="#134B84" stroke-width="1.5"/>
<path d="M12 15.25C10.2049 15.25 8.75 13.7951 8.75 12C8.75 10.2049 10.2049 8.75 12 8.75C13.7951 8.75 15.25 10.2049 15.25 12C15.25 13.7951 13.7951 15.25 12 15.25Z" stroke="#134B84" stroke-width="1.5"/>
</svg>
